<svg width="580" height="151.99999999999997" xmlns="http://www.w3.org/2000/svg" xmlns:xlink="http://www.w3.org/1999/xlink">
 <!-- Created with Method Draw - http://github.com/duopixel/Method-Draw/ -->

 <g>
  <title>background</title>
  <rect fill="#fff" id="canvas_background" height="154" width="582" y="-1" x="-1"/>
  <g display="none" overflow="visible" y="0" x="0" height="100%" width="100%" id="canvasGrid">
   <rect fill="url(#gridpattern)" stroke-width="0" y="0" x="0" height="100%" width="100%"/>
  </g>
 </g>
 <g>
  <title>Layer 1</title>
  <metadata transform="matrix(0.06613907183766887,0,0,0.06613907183766887,0,0) " id="svg_85">image/svg+xml</metadata>
  <defs>
   <linearGradient id="svg_58">
    <stop stop-color="#b8b8b8" stop-opacity="0.498039" id="svg_84" offset="0"/>
    <stop stop-color="#7f7f7f" stop-opacity="0" id="svg_83" offset="1"/>
   </linearGradient>
   <linearGradient id="svg_60">
    <stop stop-color="#ffd43b" id="svg_73" offset="0"/>
    <stop stop-color="#ffe873" id="svg_72" offset="1"/>
   </linearGradient>
   <linearGradient id="svg_59">
    <stop stop-color="#5a9fd4" id="svg_71" offset="0"/>
    <stop stop-color="#306998" id="svg_70" offset="1"/>
   </linearGradient>
   <linearGradient y2="0.449144" x2="0.234427" y1="0.822756" x1="0.5" id="svg_49" xlink:href="#svg_60"/>
   <linearGradient y2="0.641104" x2="0.74521" y1="0" x1="0" id="svg_51" xlink:href="#svg_59"/>
   <radialGradient r="29.036913" fy="132.28575" fx="61.518883" cy="132.28575" cx="61.518883" gradientTransform="matrix(2.382716e-8,-0.296405,1.43676,4.683673e-7,-128.544,150.5202)" gradientUnits="userSpaceOnUse" id="svg_46" xlink:href="#svg_58"/>
  </defs>
  <g stroke="null" id="svg_87">
   <path stroke="null" fill="#646464" d="m235.646777,76.826372c0,-18.810383 -5.363604,-28.467391 -16.090811,-28.9962c-4.268229,-0.201445 -8.435715,0.478444 -12.489904,2.052277c-3.235787,1.158334 -5.413955,2.304087 -6.559708,3.462421l0,44.898147c6.861883,4.305999 12.955754,6.307898 18.268993,5.993142c11.243422,-0.742849 16.87143,-9.871048 16.87143,-27.409786zm13.23274,0.780619c0,9.556279 -2.241128,17.488374 -6.748572,23.796272c-5.023659,7.138881 -11.986271,10.815342 -20.887836,11.016801c-6.710802,0.21404 -13.623049,-1.888601 -20.736755,-6.295316l0,40.806201l-11.507826,-4.10454l0,-90.576926c1.888588,-2.316668 4.31858,-4.305986 7.264787,-5.993129c6.849301,-3.99123 15.171693,-6.043506 24.9672,-6.144223l0.163675,0.163675c8.95193,-0.113324 15.851595,3.56315 20.698984,11.016788c4.520026,6.836707 6.786342,15.599785 6.786342,26.314398z" id="svg_57"/>
   <path stroke="null" fill="#646464" d="m319.210714,104.38724c0,12.817254 -1.284239,21.693643 -3.852717,26.629167c-2.581086,4.935524 -7.491421,8.876389 -14.743626,11.810001c-5.879818,2.316668 -12.238081,3.575731 -19.062193,3.789771l-1.901183,-7.252192c6.937423,-0.944294 11.822595,-1.888601 14.655478,-2.832896c5.577644,-1.888588 9.405198,-4.78443 11.507826,-8.662349c1.687143,-3.160246 2.518127,-9.191145 2.518127,-18.117899l0,-2.996558c-7.869136,3.575731 -16.116,5.351009 -24.740566,5.351009c-5.665778,0 -10.664261,-1.775278 -14.970247,-5.351009c-4.834808,-3.890513 -7.252205,-8.826037 -7.252205,-14.806572l0,-47.894718l11.507826,-3.940865l0,48.209474c0,5.149564 1.661967,9.115618 4.985889,11.898149c3.323921,2.782518 7.62992,4.117122 12.905389,4.016406c5.275469,-0.113324 10.928653,-2.153006 16.934376,-6.144223l0,-56.242298l11.507826,0l0,62.537602z" id="svg_56"/>
   <path stroke="null" fill="#646464" d="m364.13405,111.790525c-1.372374,0.113311 -2.631437,0.163675 -3.789771,0.163675c-6.509356,0 -11.58338,-1.548644 -15.209476,-4.658525c-3.613515,-3.109882 -5.42655,-7.403286 -5.42655,-12.8802l0,-45.32624l-7.88173,0l0,-7.239598l7.88173,0l0,-19.225881l11.495232,-4.091959l0,23.31784l12.930565,0l0,7.239598l-12.930565,0l0,45.011471c0,4.31858 1.158334,7.378097 3.475015,9.165969c1.989318,1.473103 5.149564,2.316681 9.45555,2.530721l0,5.993129z" id="svg_55"/>
   <path stroke="null" fill="#646464" d="m433.810533,110.846231l-11.507826,0l0,-44.419703c0,-4.520039 -1.057618,-8.410539 -3.160233,-11.65892c-2.429992,-3.676461 -5.804291,-5.514697 -10.135452,-5.514697c-5.275482,0 -11.872973,2.782531 -19.792448,8.347593l0,53.245727l-11.507839,0l0,-106.176698l11.507839,-3.626096l0,48.360568c7.352921,-5.351009 15.38572,-8.032811 24.111015,-8.032811c6.093871,0 11.029395,2.052264 14.806572,6.144223c3.789784,4.091946 5.678373,9.191145 5.678373,15.285003l0,48.045812l0,0z" id="svg_54"/>
   <path stroke="null" fill="#646464" d="m494.975761,75.013324c0,-7.227016 -1.372361,-13.194969 -4.10454,-17.916453c-3.248368,-5.753913 -8.297203,-8.788254 -15.121328,-9.103023c-12.615796,0.730267 -18.911099,9.770332 -18.911099,27.095017c0,7.944689 1.309415,14.579938 3.953434,19.905771c3.374299,6.786342 8.435728,10.135452 15.1843,10.022142c12.66616,-0.100729 18.999234,-10.097682 18.999234,-30.003453zm12.603227,0.07554c0,10.286546 -2.631437,18.848166 -7.88173,25.684873c-5.779089,7.655096 -13.761548,11.495232 -23.947365,11.495232c-10.097669,0 -17.966805,-3.840136 -23.645178,-11.495232c-5.149564,-6.836707 -7.718055,-15.398327 -7.718055,-25.684873c0,-9.66959 2.782531,-17.80313 8.34758,-24.425797c5.879831,-7.025571 13.610468,-10.550938 23.166734,-10.550938c9.556292,0 17.33728,3.525367 23.330435,10.550938c5.565036,6.622667 8.34758,14.756207 8.34758,24.425797z" id="svg_53"/>
   <path stroke="null" fill="#646464" d="m573.553822,110.846231l-11.507826,0l0,-46.937829c0,-5.149564 -1.548644,-9.165969 -4.645931,-12.061824c-3.0973,-2.883247 -7.227016,-4.28081 -12.37658,-4.167486c-5.46432,0.100729 -10.664261,1.888588 -15.599772,5.351009l0,57.816131l-11.507826,0l0,-59.238869c6.622667,-4.8222 12.716525,-7.969865 18.281561,-9.442968c5.250306,-1.372374 9.883655,-2.052264 13.874885,-2.052264c2.732166,0 5.300645,0.264404 7.718042,0.7932c4.520039,1.045023 8.196486,2.983977 11.029382,5.829467c3.160233,3.147652 4.734066,6.924842 4.734066,11.344138l0,52.767296z" id="svg_52"/>
   <path stroke="null" fill="url(#svg_51)" id="svg_50" d="m75.338702,5.094745c-5.920857,0.027514 -11.575126,0.532477 -16.550306,1.412831c-14.656266,2.589288 -17.317271,8.008862 -17.317271,18.003503l0,13.199878l34.634542,0l0,4.399959l-34.634542,0l-12.998045,0c-10.065763,0 -18.879633,6.050107 -21.636497,17.559471c-3.18001,13.192412 -3.321067,21.424692 0,35.199674c2.461936,10.253568 8.341406,17.559471 18.407169,17.559471l11.908147,0l0,-15.823707c0,-11.431692 9.890966,-21.515384 21.636497,-21.515397l34.594175,0c9.629791,0 17.317271,-7.928853 17.317271,-17.599837l0,-32.979511c0,-9.386158 -7.918286,-16.436982 -17.317271,-18.003503c-5.949701,-0.990396 -12.123026,-1.440345 -18.04387,-1.412831zm-18.730102,10.616416c3.577501,0 6.499022,2.969238 6.499022,6.620122c-0.000013,3.637954 -2.921521,6.579756 -6.499022,6.579756c-3.590341,0 -6.499022,-2.941801 -6.499022,-6.579756c-0.000013,-3.650884 2.908682,-6.620122 6.499022,-6.620122z"/>
   <path stroke="null" fill="url(#svg_49)" id="svg_48" d="m115.019069,42.110916l0,15.379674c0,11.92366 -10.108959,21.95943 -21.636497,21.95943l-34.594175,0c-9.475933,0 -17.317271,8.110121 -17.317271,17.599837l0,32.979511c0,9.386158 8.161907,14.906991 17.317271,17.599837c10.963349,3.223657 21.47662,3.806254 34.594175,0c8.719379,-2.524546 17.317271,-7.605209 17.317271,-17.599837l0,-13.199878l-34.594175,0l0,-4.399959l34.594175,0l17.317271,0c10.065763,0 13.81668,-7.021089 17.317258,-17.559471c3.615982,-10.849095 3.462124,-21.282266 0,-35.199674c-2.48759,-10.020527 -7.238694,-17.559471 -17.317258,-17.559471l-12.998045,0zm-19.456701,83.518494c3.590328,0.000013 6.499022,2.941814 6.499022,6.579756c-0.000013,3.650884 -2.908694,6.620122 -6.499022,6.620122c-3.577514,0 -6.499022,-2.969238 -6.499022,-6.620122c0,-3.637941 2.921495,-6.579756 6.499022,-6.579756z"/>
   <path stroke="null" opacity="0.44382" fill="url(#svg_46)" fill-rule="nonzero" stroke-width="20" stroke-miterlimit="4" d="m122.911806,170.048647a46.41316,8.999897 0 1 1 -92.826329,0a46.41316,8.999897 0 1 1 92.826329,0z" id="svg_45"/>
  </g>
 </g>
</svg>